<?xml version="1.0" encoding="utf-8"?>
<!-- Generator: Adobe Illustrator 25.0.0, SVG Export Plug-In . SVG Version: 6.00 Build 0)  -->
<svg version="1.1" id="dot-0" xmlns="http://www.w3.org/2000/svg" xmlns:xlink="http://www.w3.org/1999/xlink" x="0px" y="0px"
	 viewBox="0 0 21.3 19.5" style="enable-background:new 0 0 21.3 19.5;" xml:space="preserve">
<style type="text/css">
	.st0{fill:#CF1620;}
</style>
<path class="st0" d="M15.9,0H5.5C2.5,0,0,2.5,0,5.5V14c0,2.8,2.1,5.1,4.8,5.5h11.8c2.4-0.3,4.3-2.1,4.7-4.4V4.5
	C20.8,1.9,18.6,0,15.9,0z M18.4,14c0,1.4-1.1,2.5-2.5,2.5H5.5C4.1,16.5,3,15.4,3,14V5.5C3,4.1,4.1,3,5.5,3h10.4
	c1.4,0,2.5,1.1,2.5,2.5V14z M15.4,7.1v5.3c0,0.8-0.7,1.5-1.5,1.5H7.4c-0.8,0-1.5-0.7-1.5-1.5V7.1c0-0.8,0.7-1.5,1.5-1.5h6.5
	C14.7,5.6,15.4,6.3,15.4,7.1z"/>
</svg>
