<?xml version="1.0" encoding="utf-8"?>
<!-- Generator: Adobe Illustrator 25.0.0, SVG Export Plug-In . SVG Version: 6.00 Build 0)  -->
<svg version="1.1" id="Layer_2_1_" xmlns="http://www.w3.org/2000/svg" xmlns:xlink="http://www.w3.org/1999/xlink" x="0px" y="0px"
	 viewBox="0 0 48 32.1" style="enable-background:new 0 0 48 32.1;" xml:space="preserve">
<style type="text/css">
	.st0{fill:#CF1620;}
</style>
<g>
	<g>
		<path class="st0" d="M14.5,1.5h19c2.7,0,5,1.5,6,3.8h1.7c-1.2-3-4.2-5.2-7.7-5.2h-19c-3.4,0-6.4,2.1-7.6,5.2h1.6
			C9.6,3,11.9,1.5,14.5,1.5z M33.4,30.6H14.5c-2.7,0-4.9-1.5-6-3.8H6.8c1.2,3,4.2,5.3,7.7,5.3h19c3.5,0,6.5-2.1,7.7-5.3h-1.7
			C38.4,29.1,36.2,30.6,33.4,30.6z"/>
	</g>
	<path class="st0" d="M12.3,10.2c0,0,0.5,2.4-1.9,2.8c-1.8,0-4,0-4,0v0.8c0,0,2.7,0,4,0c0.9,0,1.4-0.4,1.6-1H19c0.6,0.5,0.8,1,0,1.5
		h-7.6v0.9h9.4c0.6,0.6,0.6,1.1,0,1.6h-9.4v0.9h8.4c0.8,0.6,0.6,1.1,0,1.5h-8.4v0.9h6.8c0.8,0.6,0.8,1.1,0,1.7H0V10.1h12.3V10.2z"/>
	<path class="st0" d="M35.7,10.2c0,0-0.4,2.4,2,2.8c1.8,0,4,0,4,0v0.8c0,0-2.7,0-4,0c-0.9,0-1.3-0.4-1.7-1h-7c-0.6,0.5-0.8,1,0,1.5
		h7.6v0.9h-9.5c-0.6,0.6-0.6,1.1,0,1.6h9.5v0.9h-8.4c-0.8,0.6-0.6,1.1,0,1.5h8.4v0.9h-6.8c-0.8,0.6-0.8,1.1,0,1.7H48V10.1H35.7V10.2
		z"/>
</g>
</svg>
