<svg xmlns="http://www.w3.org/2000/svg" viewBox="0 0 16 16"><defs><style>.cls-1{fill:#00247d;}.cls-2{fill:#fff;}.cls-3{fill:#cf142b;}</style></defs><g id="Small"><rect class="cls-1" x="0.03" y="3.95" width="15.97" height="7.99"/><polygon class="cls-2" points="14.21 3.95 0.03 11.04 0.03 11.93 1.82 11.93 16 4.83 16 3.95 14.21 3.95"/><polygon class="cls-2" points="1.82 3.95 16 11.04 16 11.93 14.21 11.93 0.03 4.83 0.03 3.95 1.82 3.95"/><rect class="cls-2" x="6.69" y="3.95" width="2.67" height="7.99"/><rect class="cls-2" x="6.69" y="-0.04" width="2.67" height="15.96" transform="translate(15.96 -0.08) rotate(90)"/><rect class="cls-3" x="7.21" y="3.95" width="1.59" height="7.99"/><rect class="cls-3" x="7.22" y="-0.06" width="1.6" height="15.96" transform="translate(0.1 15.94) rotate(-90)"/><polygon class="cls-3" points="0.02 3.94 5.35 6.61 4.17 6.61 0.02 4.53 0.02 3.94"/><polygon class="cls-3" points="16 11.92 10.66 9.28 11.84 9.27 16 11.33 16 11.92"/><polygon class="cls-3" points="16 3.95 10.66 6.61 9.48 6.61 14.79 3.95 16 3.95"/><polygon class="cls-3" points="0.03 11.93 5.37 9.27 6.55 9.27 1.24 11.93 0.03 11.93"/></g></svg>