<svg id="Libya" xmlns="http://www.w3.org/2000/svg" viewBox="0 0 128 128"><defs><style>.cls-1{fill:#239e46;}.cls-2{fill:#e70013;}.cls-3{fill:#fff;}</style></defs><rect id="green" class="cls-1" x="3.81" y="79.1" width="120.38" height="15"/><rect id="black" x="3.81" y="49.09" width="120.38" height="30"/><rect id="red" class="cls-2" x="3.81" y="33.9" width="120.38" height="15.18"/><path id="cres" class="cls-3" d="M65.52,70.54a6.46,6.46,0,0,0,4.32-1.65,7.62,7.62,0,1,1,0-9.78,6.46,6.46,0,0,0-4.32-1.65,6.54,6.54,0,1,0,0,13.08Z"/><polygon id="star" class="cls-3" points="77.08 61.28 75.16 64.01 77.07 66.74 73.89 65.76 71.88 68.41 71.83 65.08 68.68 63.99 71.83 62.92 71.89 59.59 73.89 62.25 77.08 61.28"/></svg>