<svg xmlns="http://www.w3.org/2000/svg" xmlns:xlink="http://www.w3.org/1999/xlink" viewBox="0 0 185 100.8"><defs><style>.cls-1{fill:#cf1620;}.cls-2,.cls-3{fill:#f2f2f2;}.cls-3{font-size:12.96px;font-family:AdobeArabic-Regular, Adobe Arabic;}.cls-4{fill:url(#linear-gradient);}</style><linearGradient id="linear-gradient" x1="92.68" y1="55.3" x2="92.68" y2="66.91" gradientUnits="userSpaceOnUse"><stop offset="0" stop-color="#b3b3b3"/><stop offset="0.27" stop-color="#c8c8c8"/><stop offset="0.74" stop-color="#e6e6e6"/><stop offset="1" stop-color="#f2f2f2"/></linearGradient></defs><g id="Logo_Dark_Small" data-name="Logo Dark Small"><rect id="white_bg" data-name="white bg" class="cls-1" y="7.43" width="185" height="85.93" rx="14.39"/><g id="Hands"><path id="Lt_Hand" data-name="Lt Hand" class="cls-2" d="M71.49,18.53S72.34,23,68,23.73c-3.16,0-7.28,0-7.28,0V25h7.4a3.06,3.06,0,0,0,3-2H83.73c1.1.93,1.26,1.88,0,2.85H69.85v1.72H86.94q1.71,1.5,0,3H69.77v1.62H85.1c1.28,1,1.21,2,0,2.85H69.85v1.67H82c1.3,1,1.27,2,0,3.08H12.2V18.53Z"/><path id="Rt_Hand" data-name="Rt Hand" class="cls-2" d="M113.74,18.53s-.85,4.45,3.52,5.2c3.16,0,7.28,0,7.28,0V25h-7.4a3.06,3.06,0,0,1-3-2H101.5c-1.1.93-1.26,1.88,0,2.85h13.88v1.72H98.3q-1.72,1.5,0,3h17.16v1.62H100.14c-1.29,1-1.22,2,0,2.85h15.24v1.67H103.22c-1.3,1-1.26,2,0,3.08h69.63V18.53Z"/></g><text class="cls-3" transform="translate(11.05 80.56)">Saint James Hospital Medical Laboratories</text><path id="مختبرات_مستشفى_سانت_جيمس" data-name="مختبرات مستشفى سانت جيمس" class="cls-4" d="M14.38,57.19c-.32-.3-.6-.55-.91-.81a7.09,7.09,0,0,1,.61-.74,8.52,8.52,0,0,1,.89.83A4.65,4.65,0,0,1,14.38,57.19Zm2.09-.82a8.52,8.52,0,0,0-.89-.83,7.09,7.09,0,0,0-.61.74c.31.26.59.5.91.81A4.65,4.65,0,0,0,16.47,56.37Zm3,8.86a6.9,6.9,0,0,0-.61.73c.31.26.59.51.91.81a4.52,4.52,0,0,0,.59-.71A6.8,6.8,0,0,0,19.49,65.23Zm-1.5.1a7.09,7.09,0,0,0-.61.74c.31.25.59.5.91.8a4.52,4.52,0,0,0,.59-.71A7.56,7.56,0,0,0,18,65.33Zm4.35-.09c-.21.24-.42.51-.63.79.32.27.62.52.92.81a3.13,3.13,0,0,0,.65-.77A7.08,7.08,0,0,0,22.34,65.24Zm11.71-7.65a3.39,3.39,0,0,1-.49.4c0,.89.1,1.83.1,2.7a4.54,4.54,0,0,1-.31,2,1.58,1.58,0,0,1-.71.9,2.26,2.26,0,0,1-1,.23h-.3a12,12,0,0,1-2.52-.25,23.32,23.32,0,0,1-4.05.25h-.73a1.56,1.56,0,0,1-1.6-.79h0a1.68,1.68,0,0,1-1.55.79h-.33A1.57,1.57,0,0,1,19,63h0a1.67,1.67,0,0,1-1.54.79h-.32a1.44,1.44,0,0,1-1.61-1.08,3.68,3.68,0,0,1-1.54.34c-.82,0-1.42-.28-1.42-.91a2.32,2.32,0,0,1,.25-.9,5.67,5.67,0,0,1,2.49-2.14l-.05-.59a7.41,7.41,0,0,1,.62-.63h.08c0,1.2,0,2.41,0,3.62a1.44,1.44,0,0,0,.29,1.1,1.31,1.31,0,0,0,.82.2h.36c.6,0,1.22-.24,1.34-.69l.22-.84.54-.38,0,.05a4.84,4.84,0,0,0-.17.9.78.78,0,0,0,.26.65,1.46,1.46,0,0,0,1,.31h.31c.6,0,1.22-.24,1.34-.69l.23-.84.53-.38,0,.05a4.12,4.12,0,0,0-.17.9.78.78,0,0,0,.26.65,1.44,1.44,0,0,0,1,.31h.68l.59-.71a6,6,0,0,0,.12-1.55c0-1-.11-2.68-.19-3.56a6.78,6.78,0,0,1,0-.77c0-.35.22-.59.61-.89l.05.05a3.53,3.53,0,0,0,.66,1.71l-.5.39c0,.84.07,1.68.07,2.52a3.89,3.89,0,0,1-.28,1.56h0a8.18,8.18,0,0,1,1.65-1.43A2.93,2.93,0,0,1,29,59.68a1.9,1.9,0,0,1,1.86,1.91,2.36,2.36,0,0,1-.41,1.15,6.17,6.17,0,0,0,.8,0h.48a1.74,1.74,0,0,0,.87-.21.9.9,0,0,0,.41-.84c0-1.25-.1-2.61-.23-4,0-.35-.07-.68-.07-1a.76.76,0,0,1,.23-.52,4.34,4.34,0,0,1,.43-.43l.05,0A3.59,3.59,0,0,0,34.05,57.59ZM15.33,61.86l0-1.92c-1.38.72-2.1,1.29-2.1,1.7s.46.44,1,.44A3.65,3.65,0,0,0,15.33,61.86Zm14.87.19a1.55,1.55,0,0,0-1.61-1.32c-1,0-1.9.73-3.13,2.05h.72C28.22,62.78,29.86,62.63,30.2,62.05ZM36,55.93a7.52,7.52,0,0,0-.76.82c.13,1.35.28,3.42.28,4.84v.76a11.25,11.25,0,0,1-.08,1.55l.1.06a2,2,0,0,0,.68-1.25,12.08,12.08,0,0,0,0-1.28c0-1.82,0-3.78-.2-5.48Zm22.35,9.4a7.09,7.09,0,0,0-.61.74c.31.25.59.5.91.8a4.52,4.52,0,0,0,.59-.71A7.56,7.56,0,0,0,58.31,65.33Zm1.5-.1a6.9,6.9,0,0,0-.61.73c.31.26.59.51.91.81a4.52,4.52,0,0,0,.59-.71A6.8,6.8,0,0,0,59.81,65.23Zm8-4.47,0,0-.42.82a2.4,2.4,0,0,0-1.34.28l-1.3.85a6,6,0,0,1-3.36,1h-.59a1.57,1.57,0,0,1-1.6-.79h0a1.67,1.67,0,0,1-1.55.79h-.29a1.32,1.32,0,0,1-1.2-.67h0a1.19,1.19,0,0,1-.25.59.69.69,0,0,1-.51.25,3.46,3.46,0,0,1-2.2-1.08h0a1.58,1.58,0,0,1-1.55.91h-.31c-1,0-1.48-.29-1.68-.73h0a1.75,1.75,0,0,1-1.36.73.76.76,0,0,1-.83-.64h0a1.42,1.42,0,0,1-1.24.64H46A5.51,5.51,0,0,1,45.68,65a2.93,2.93,0,0,1-2.61,1.51,2.15,2.15,0,0,1-2.26-2.38A4.09,4.09,0,0,1,41.42,62l.27.14a3.7,3.7,0,0,0-.37,1.45,1.77,1.77,0,0,0,1.9,1.88c1.2,0,2.3-.92,2.3-1.64a4.43,4.43,0,0,0-.8-2.06,9.77,9.77,0,0,1,.52-.84h0a11.3,11.3,0,0,1,.63,1.49c.11.26.22.39.5.39a1,1,0,0,0,.59-.22,1.23,1.23,0,0,0,.45-.61l.21-.58.52-.24,0,0A3.7,3.7,0,0,0,48,62.3c0,.33.24.48.54.48.6,0,.84-.56,1-1l.14-.54.56-.33,0,0A4.57,4.57,0,0,0,50,62c0,.61.6.81,1.34.81h.4c.82,0,1.08-.41,1.31-1.14.31-1,.92-1.48,1.44-1.48a1,1,0,0,1,.93.52,9,9,0,0,1,.78,1.46,1.24,1.24,0,0,0,1.21.64h.31c.6,0,1.22-.24,1.33-.69l.23-.84.54-.38,0,.05a4.12,4.12,0,0,0-.17.9.78.78,0,0,0,.26.65,1.46,1.46,0,0,0,1,.31h.62a8.07,8.07,0,0,0,4.15-1.41v0a7.36,7.36,0,0,0-2.44-.54,1.25,1.25,0,0,0-1,.38l.09.39-.23.7h-.08l-.38-1a1.53,1.53,0,0,1,1.68-1.4,7.38,7.38,0,0,1,2.55.67,3.89,3.89,0,0,0,1.33.25Zm-12.13,2a2.23,2.23,0,0,0-.39-1,1.3,1.3,0,0,0-1-.7,1,1,0,0,0-.9.7c.08.29.58.69.92.89a2.54,2.54,0,0,0,1.07.34C55.59,63,55.73,63,55.73,62.79Zm8.18,2.14c-.21.24-.42.51-.63.79.31.27.61.52.91.8a2.92,2.92,0,0,0,.65-.76A6.45,6.45,0,0,0,63.91,64.93Zm14.21-6.85a7.55,7.55,0,0,0-.88-.83,7.1,7.1,0,0,0-.62.74c.31.26.59.5.91.81A3.73,3.73,0,0,0,78.12,58.08Zm-1.5.1a7.55,7.55,0,0,0-.88-.83,7.1,7.1,0,0,0-.62.74c.31.26.59.51.91.81A3.73,3.73,0,0,0,76.62,58.18Zm7.54-.35a7.2,7.2,0,0,0-.93-.84c-.21.25-.42.52-.63.8.31.26.61.51.92.8A3.27,3.27,0,0,0,84.16,57.83Zm-.23,1.66a5.59,5.59,0,0,0-.58.88,6.43,6.43,0,0,1,.77,1.92c0,.13-.17.24-.44.34a5.14,5.14,0,0,1-1.53.15h-.27a1.3,1.3,0,0,1-.93-.3.74.74,0,0,1-.28-.63,3.75,3.75,0,0,1,.19-.92l0-.06-.53.38-.34,1.09a6.54,6.54,0,0,1-1,.34,11.67,11.67,0,0,1-2.65.35,4.87,4.87,0,0,1-2.47-.5,2,2,0,0,1-1-1.72A3.76,3.76,0,0,1,73,59.63l-.32-.13a3.94,3.94,0,0,0-.45,1.88,2.43,2.43,0,0,0,1.14,2.11,5,5,0,0,0,2.66.59,11.29,11.29,0,0,0,3-.49,5.18,5.18,0,0,0,1.21-.49c.3.52.83.67,1.59.67h.27c1.19,0,1.74-.11,2.09-.46a2.38,2.38,0,0,0,.55-1.45A5.45,5.45,0,0,0,84,59.49Zm10.45.93a6.52,6.52,0,0,0-.69.7,7.15,7.15,0,0,1,.19,1.26.36.36,0,0,1-.41.35.83.83,0,0,1-.81-.89,3.45,3.45,0,0,1,.1-.76l-.05,0-.46.28c-.24.8-.28,1-.55,1.23a1.24,1.24,0,0,1-.7.23.37.37,0,0,1-.4-.39,3,3,0,0,1,.53-1.12l0,0-.6.21-.43.61a1.84,1.84,0,0,1-1.64.73h-.37a1.6,1.6,0,0,1-.5-.09.81.81,0,0,1-.58-.83v-.44c0-1.91,0-3.93-.13-5.63l0,0a6.1,6.1,0,0,0-.73.72c.11,1.65.2,3.2.2,4.67,0,1.15,0,1.7.48,2.18a1.72,1.72,0,0,0,1.33.44h.22A2.07,2.07,0,0,0,90,63.11h0a.66.66,0,0,0,.74.66,1.78,1.78,0,0,0,1.36-.67h.06a1.31,1.31,0,0,0,1,.65,1.51,1.51,0,0,0,1.15-.86,2.6,2.6,0,0,0,.28-1.06,9.51,9.51,0,0,0-.13-1.38Zm15.3-3.36a6.45,6.45,0,0,0-.93-.83c-.21.24-.42.51-.63.79.31.26.61.51.92.8A3.27,3.27,0,0,0,109.68,57.06Zm7,2.83a4.55,4.55,0,0,0,.59-.72,6.85,6.85,0,0,0-.89-.83,7.09,7.09,0,0,0-.61.74C116.07,59.33,116.35,59.58,116.67,59.89Zm-.49-2.27a7,7,0,0,0-.89-.84,8.32,8.32,0,0,0-.61.74c.31.26.59.51.91.81A4,4,0,0,0,116.18,57.62Zm-.42,1.65a7.62,7.62,0,0,0-.89-.83,7.09,7.09,0,0,0-.61.74c.31.26.59.5.91.81A4.14,4.14,0,0,0,115.76,59.27Zm5.16-.15a7.62,7.62,0,0,0-.88-.84,6.91,6.91,0,0,0-.62.74c.31.26.59.51.91.81A4,4,0,0,0,120.92,59.12Zm1.5-.1a7.62,7.62,0,0,0-.88-.84,6.91,6.91,0,0,0-.62.74c.31.26.59.51.91.81A4,4,0,0,0,122.42,59Zm13,3.66c-.16.7-.45,1-.82,1a4,4,0,0,1-2.31-.92h-.05a1.27,1.27,0,0,1-1.35,1h-.32c-1,0-1.41-.29-1.61-.73h0a1.73,1.73,0,0,1-1.33.73.78.78,0,0,1-.85-.64h0a1.76,1.76,0,0,1-1.34.64.67.67,0,0,1-.75-.66h0a2.1,2.1,0,0,1-1.66.66h-.31A1.56,1.56,0,0,1,121,63h0a1.67,1.67,0,0,1-1.55.79h-.34c-1,0-1.41-.29-1.6-.73h-.05a1.72,1.72,0,0,1-1.33.73.77.77,0,0,1-.84-.64h0a1.77,1.77,0,0,1-1.35.64.67.67,0,0,1-.75-.66h0a2.07,2.07,0,0,1-1.65.66h-.36a7.59,7.59,0,0,1-2.54-.49,7.28,7.28,0,0,1-2.22.49h-.6a4.18,4.18,0,0,1,0,.56,2.79,2.79,0,0,1-.35,1,5.84,5.84,0,0,1-3.63,1.45,2.73,2.73,0,0,1-2.13-.84A3.13,3.13,0,0,1,99,63.74a5.61,5.61,0,0,1,.73-2.56l.3.13a5.22,5.22,0,0,0-.48,1.95,2.44,2.44,0,0,0,.62,1.69,2.58,2.58,0,0,0,1.88.73,5.82,5.82,0,0,0,2.48-.66c.35-.2.64-.38.7-.54-.18-.37-1-.71-2.26-.71l0-.11.53-.88h2.88a5.86,5.86,0,0,0,1.25-.19,2.12,2.12,0,0,1-.27-1.18,2.65,2.65,0,0,1,.7-1.83,2.07,2.07,0,0,1,1.17-.72c.28,0,.62.31.91.86a2.36,2.36,0,0,1,.29,1.11,3.4,3.4,0,0,1-.52,1.81,4.75,4.75,0,0,0,1.22.14h.51a1.89,1.89,0,0,0,1.64-.73l.39-.6.6-.21,0,0a3.05,3.05,0,0,0-.51,1.11.39.39,0,0,0,.42.39,1.11,1.11,0,0,0,.68-.24,1.7,1.7,0,0,0,.5-.68l.19-.46.59-.27,0,0a3.31,3.31,0,0,0-.32,1.17.43.43,0,0,0,.44.45,1,1,0,0,0,.54-.17,1.31,1.31,0,0,0,.45-.75c0-.12.07-.27.15-.61l.59-.4,0,0a4.48,4.48,0,0,0-.19,1.07c0,.61.54.84,1.27.84h.35c.59,0,1.22-.24,1.33-.69l.23-.84.53-.38.05.05a4.12,4.12,0,0,0-.17.9.78.78,0,0,0,.26.65,1.46,1.46,0,0,0,1,.31h.41a1.9,1.9,0,0,0,1.64-.73l.38-.6.6-.21,0,0a3.16,3.16,0,0,0-.5,1.11.39.39,0,0,0,.42.39,1.1,1.1,0,0,0,.67-.24,1.72,1.72,0,0,0,.51-.68l.19-.46.59-.27,0,0a3.1,3.1,0,0,0-.32,1.17.42.42,0,0,0,.43.45,1,1,0,0,0,.54-.17,1.26,1.26,0,0,0,.45-.75c0-.12.08-.27.16-.61l.59-.4,0,0a4.53,4.53,0,0,0-.2,1.07c0,.61.54.84,1.28.84h.34c.58,0,1-.4,1.31-1.38a2.27,2.27,0,0,1,.57-.94,1.49,1.49,0,0,1,1-.45C134.75,60,135.31,61.32,135.43,62.68ZM110,61.41a1.62,1.62,0,0,0-.19-.7c-.21-.41-.45-.7-.77-.7-.6,0-1.2.72-1.34,1.3a1.39,1.39,0,0,0,1.07,1C109.29,62.23,110,61.73,110,61.41Zm24.86,1.2c-.23-1.18-.74-1.7-1.23-1.7a1.11,1.11,0,0,0-1,.76,2.41,2.41,0,0,0,1.09.8,2.58,2.58,0,0,0,.93.22C134.7,62.69,134.8,62.68,134.84,62.61ZM144,58.18a8.45,8.45,0,0,0-.88-.83,6,6,0,0,0-.62.74c.31.26.59.51.91.81A4.14,4.14,0,0,0,144,58.18Zm1.5-.1a8.45,8.45,0,0,0-.88-.83A6,6,0,0,0,144,58c.31.26.59.5.91.81A4.14,4.14,0,0,0,145.49,58.08Zm2,1.41a5.61,5.61,0,0,0-.59.88,6.25,6.25,0,0,1,.78,1.92s0,.06-.08.08a5.76,5.76,0,0,1-1,.32,11.82,11.82,0,0,1-2.66.34c-1.95,0-3.5-.65-3.5-2.22a3.76,3.76,0,0,1,.23-1.18l-.32-.13a3.94,3.94,0,0,0-.45,1.88c0,1.91,1.65,2.7,3.8,2.7a10.53,10.53,0,0,0,4.21-.92,2.31,2.31,0,0,0,.41-1.3,5.45,5.45,0,0,0-.78-2.37Zm3.14,1.94c0-1.82,0-3.78-.2-5.48l-.07,0a7.52,7.52,0,0,0-.76.82c.12,1.35.28,3.42.28,4.84v.76a9.86,9.86,0,0,1-.09,1.55l.11.06a2,2,0,0,0,.68-1.25A12.08,12.08,0,0,0,150.65,61.43Zm5,3.89c-.21.24-.42.51-.63.79.31.27.61.52.91.8a2.92,2.92,0,0,0,.65-.76A7.72,7.72,0,0,0,155.68,65.32Zm3.51-6.2a7,7,0,0,0-.89-.84,8.32,8.32,0,0,0-.61.74c.31.26.59.51.91.81A4,4,0,0,0,159.19,59.12Zm1.5-.1a7,7,0,0,0-.89-.84,8.32,8.32,0,0,0-.61.74c.31.26.59.51.91.81A4,4,0,0,0,160.69,59Zm7.25,1.77v0h-.68a3.84,3.84,0,0,1-1.33-.25,7.54,7.54,0,0,0-2.55-.67,1.54,1.54,0,0,0-1.69,1.4l.38,1h.08l.24-.7-.1-.39a1.29,1.29,0,0,1,1-.38,7.41,7.41,0,0,1,2.44.54v0a8.07,8.07,0,0,1-4.15,1.41h-.61a1.48,1.48,0,0,1-1-.31.8.8,0,0,1-.25-.65,4.12,4.12,0,0,1,.17-.9l0-.05-.53.38-.23.84c-.12.45-.74.69-1.34.69h-.27a1.29,1.29,0,0,1-.63-.17,2,2,0,0,1-.66-1.35c-.12-.67-.18-1-.21-1.21h-.08a4.36,4.36,0,0,1-.65,1.05.92.92,0,0,1-.55.21,1.16,1.16,0,0,1-.66-.17l-.56-.49h-.07l-.26,1a4.08,4.08,0,0,1,1,1.32,2.11,2.11,0,0,1-.63,1.1,2.75,2.75,0,0,1-2.13,1.1,1.87,1.87,0,0,1-.73-.19l-.11.25a4.56,4.56,0,0,0,2,.61,2.3,2.3,0,0,0,1.53-1.18,2.75,2.75,0,0,0,.45-1c0-.22,0-.31,0-.4a4.17,4.17,0,0,0-.11-1.08,1.27,1.27,0,0,0,1.15-.83h0l.2.79c.31,1.26.7,1.68,1.62,1.68h.29a1.68,1.68,0,0,0,1.55-.79h0a1.56,1.56,0,0,0,1.6.79h.53a6.11,6.11,0,0,0,3.42-1l1.3-.85a2.5,2.5,0,0,1,1.31-.29ZM164.7,58a6.45,6.45,0,0,0-.93-.83c-.21.24-.42.51-.63.79.31.26.61.51.91.8A2.92,2.92,0,0,0,164.7,58Zm8.15,4.69c-.16.7-.45,1-.82,1a4,4,0,0,1-2.31-.92h-.05a1.28,1.28,0,0,1-1.35,1H168c-1,0-1.67-.35-1.67-1.28,0-.15,0-.29,0-.44l.28-.18h0c0,.66.58.9,1.38.9h.38c.58,0,1-.4,1.31-1.38a2.27,2.27,0,0,1,.57-.94,1.49,1.49,0,0,1,1-.45C172.17,60,172.73,61.32,172.85,62.68Zm-.6-.07c-.22-1.18-.73-1.7-1.22-1.7a1.11,1.11,0,0,0-1,.76,2.36,2.36,0,0,0,1.09.8,2.58,2.58,0,0,0,.93.22C172.12,62.69,172.22,62.68,172.25,62.61Z"/></g></svg>