<svg xmlns="http://www.w3.org/2000/svg" xmlns:xlink="http://www.w3.org/1999/xlink" viewBox="0 0 370 200"><defs><style>.cls-1{fill:#f2f2f2;}.cls-2{fill:#cf1620;}.cls-3{fill:url(#linear-gradient);}</style><linearGradient id="linear-gradient" x1="185.36" y1="109.8" x2="185.36" y2="133.03" gradientUnits="userSpaceOnUse"><stop offset="0" stop-color="#4d4d4d"/><stop offset="0.38" stop-color="#2a2a2a"/><stop offset="0.78" stop-color="#0c0c0c"/><stop offset="1"/></linearGradient></defs><g id="Logo_x2_Light" data-name="Logo x2 Light"><rect id="white_bg" data-name="white bg" class="cls-1" y="14.07" width="370" height="171.86" rx="28.79"/><g id="Hands"><path id="Lt_Hand" data-name="Lt Hand" class="cls-2" d="M143,36.27s1.7,8.88-7.05,10.39c-6.32,0-14.56,0-14.56,0v2.49h14.8a6.12,6.12,0,0,0,5.92-3.94h25.37c2.19,1.87,2.51,3.77,0,5.7H139.7v3.44h34.17c2.3,2,2.29,4,0,6H139.54v3.26h30.65c2.58,2,2.44,3.9,0,5.7H139.7v3.33H164c2.6,1.92,2.52,4,0,6.16H24.4V36.27Z"/><path id="Rt_Hand" data-name="Rt Hand" class="cls-2" d="M227.48,36.27s-1.7,8.88,7,10.39c6.32,0,14.56,0,14.56,0v2.49h-14.8a6.11,6.11,0,0,1-5.91-3.94H203c-2.19,1.87-2.51,3.77,0,5.7h27.76v3.44H196.59c-2.29,2-2.28,4,0,6h34.33v3.26H200.28c-2.58,2-2.44,3.9,0,5.7h30.48v3.33H206.44c-2.6,1.92-2.53,4,0,6.16H345.71V36.27Z"/></g><g id="Saint_James_Hospital_Medical_Lab" data-name="Saint James Hospital Medical Lab"><path d="M29.4,151.19c-.33-1.19-.91-2.53-2.5-2.53a2,2,0,0,0-2.09,2c0,1.3.87,1.93,2.42,2.68S30.5,155,30.5,157s-1.69,3.57-4.27,3.57a5.94,5.94,0,0,1-1.9-.3,7.09,7.09,0,0,1-.94-.39c-.12-.37-.4-2-.52-2.95l.57-.17c.32,1.18,1.24,3.12,3.18,3.12a2,2,0,0,0,2.19-2.18c0-1.34-1-2-2.46-2.73s-3.12-1.58-3.12-3.62c0-1.85,1.49-3.38,4-3.38a8.29,8.29,0,0,1,2.45.44c.08.66.17,1.42.33,2.63Z"/><path d="M37.84,160.54a1.51,1.51,0,0,1-1-.37,1.68,1.68,0,0,1-.46-.79,6.19,6.19,0,0,1-2.17,1.16,2.29,2.29,0,0,1-2.33-2.28c0-.93.51-1.48,1.53-1.81a12.16,12.16,0,0,0,2.91-1.2v-.33c0-1.33-.61-2-1.51-2a1.08,1.08,0,0,0-.79.33,2.86,2.86,0,0,0-.57,1.25.6.6,0,0,1-.61.46.93.93,0,0,1-.86-.82c0-.28.24-.51.61-.76A8.63,8.63,0,0,1,35.5,152a2.54,2.54,0,0,1,1.57.47,2.8,2.8,0,0,1,.9,2.34v3.33c0,.82.33,1.1.67,1.1a1.52,1.52,0,0,0,.67-.2l.19.49Zm-1.48-4.65c-.38.19-1.14.55-1.53.72-.73.32-1.14.69-1.14,1.37a1.32,1.32,0,0,0,1.29,1.4,2.24,2.24,0,0,0,1.38-.6Z"/><path d="M40,160.32v-.49c1.18-.12,1.31-.23,1.31-1.52v-3.72c0-1.16-.06-1.25-1.17-1.44v-.45A14.44,14.44,0,0,0,43,152v6.31c0,1.28.12,1.38,1.33,1.52v.49Zm1-10.85a1,1,0,0,1,1-1,1,1,0,0,1,0,2A1,1,0,0,1,41,149.47Z"/><path d="M50.58,160.32v-.49c1.08-.12,1.2-.27,1.2-1.57v-3c0-1.29-.52-2.06-1.67-2.06a3.32,3.32,0,0,0-2,.91v4.27c0,1.27.1,1.34,1.19,1.46v.49H45.15v-.49c1.26-.15,1.36-.24,1.36-1.48v-3.72c0-1.2-.13-1.28-1.12-1.46v-.47a12.29,12.29,0,0,0,2.75-.73v1.49c.38-.27.78-.57,1.26-.88A2.84,2.84,0,0,1,51,152c1.49,0,2.44,1.05,2.44,2.89v3.45c0,1.27.12,1.32,1.2,1.46v.49Z"/><path d="M59.12,160.28a1.8,1.8,0,0,1-.8.26c-1.25,0-1.94-.71-1.94-2.21V153H55.1l-.09-.21.52-.56h.85v-1.34l1.37-1.29.26,0v2.58h2.1A.54.54,0,0,1,60,153H58v4.67c0,1.49.64,1.75,1.11,1.75a2.64,2.64,0,0,0,1.14-.32l.16.5Z"/><path d="M71.51,148.85c-1.46.1-1.62.22-1.62,1.82v6.65c0,2.37-.36,3.73-1.72,4.94a5,5,0,0,1-1.8,1.08l-.24-.55a3.14,3.14,0,0,0,1.81-2.42,21.75,21.75,0,0,0,.2-3.57v-6.13c0-1.6-.18-1.72-1.69-1.82v-.56h5.06Z"/><path d="M78.05,160.54a1.49,1.49,0,0,1-1-.37,1.6,1.6,0,0,1-.46-.79,6.14,6.14,0,0,1-2.18,1.16,2.29,2.29,0,0,1-2.32-2.28c0-.93.5-1.48,1.53-1.81a12.16,12.16,0,0,0,2.91-1.2v-.33c0-1.33-.61-2-1.51-2a1.09,1.09,0,0,0-.8.33,2.87,2.87,0,0,0-.56,1.25.6.6,0,0,1-.61.46.93.93,0,0,1-.86-.82c0-.28.24-.51.61-.76A8.63,8.63,0,0,1,75.71,152a2.54,2.54,0,0,1,1.57.47,2.8,2.8,0,0,1,.89,2.34v3.33c0,.82.33,1.1.67,1.1a1.57,1.57,0,0,0,.68-.2l.19.49Zm-1.48-4.65c-.38.19-1.14.55-1.53.72-.74.32-1.14.69-1.14,1.37a1.32,1.32,0,0,0,1.29,1.4,2.24,2.24,0,0,0,1.38-.6Z"/><path d="M90.7,160.32v-.49c1-.12,1.26-.21,1.26-1.52v-3c0-1.39-.53-2.13-1.61-2.13a3.42,3.42,0,0,0-2,.92,7.44,7.44,0,0,1,.05.77v3.56c0,1.16.17,1.27,1.2,1.39v.49H85.46v-.49c1.13-.12,1.29-.21,1.29-1.42v-3.12c0-1.4-.52-2.1-1.59-2.1a3.47,3.47,0,0,0-2,.91v4.31c0,1.19.17,1.3,1,1.42v.49h-4v-.49c1.22-.12,1.39-.23,1.39-1.45v-3.75c0-1.18-.06-1.29-1.14-1.46v-.47a12.23,12.23,0,0,0,2.75-.73v1.52c.4-.27.81-.61,1.38-1a2.89,2.89,0,0,1,1.55-.51,2.29,2.29,0,0,1,2.1,1.52c.56-.4,1.09-.74,1.55-1.05a2.7,2.7,0,0,1,1.41-.47c1.5,0,2.46,1,2.46,2.89v3.49c0,1.23.13,1.28,1.21,1.42v.49Z"/><path d="M102.72,158.68a4.37,4.37,0,0,1-3.18,1.86,3.7,3.7,0,0,1-3.68-3.93,4.63,4.63,0,0,1,1.2-3.16A4,4,0,0,1,99.9,152h0a2.92,2.92,0,0,1,2.88,2.85c0,.35-.1.52-.44.6s-2.69.24-4.87.31c0,2.39,1.44,3.4,2.75,3.4a3.12,3.12,0,0,0,2.17-.92Zm-3.27-6c-.81,0-1.61.72-1.88,2.26,1,0,2,0,3.05,0,.33,0,.44-.12.44-.36a1.72,1.72,0,0,0-1.59-1.87Z"/><path d="M108.78,154.5c-.37-1.09-1-1.86-2-1.86a1.15,1.15,0,0,0-1.16,1.23c0,.76.71,1.2,1.55,1.53,1.43.57,2.41,1.24,2.41,2.54,0,1.74-1.6,2.6-3.15,2.6a3.93,3.93,0,0,1-2.18-.61,10.25,10.25,0,0,1-.33-2.28l.52-.07c.35,1.24,1.2,2.34,2.32,2.34a1.27,1.27,0,0,0,1.29-1.26c0-.76-.5-1.17-1.46-1.6s-2.39-1.13-2.39-2.6a2.62,2.62,0,0,1,2.91-2.43,4,4,0,0,1,1.69.33,10.4,10.4,0,0,1,.44,2Z"/><path d="M129.35,148.85c-1.57.12-1.72.21-1.72,1.78V158c0,1.57.16,1.67,1.72,1.8v.53H124.1v-.53c1.63-.13,1.78-.23,1.78-1.8v-3.62h-6.49V158c0,1.56.16,1.67,1.72,1.8v.53H116v-.53c1.51-.13,1.65-.23,1.65-1.8v-7.36c0-1.57-.14-1.66-1.71-1.78v-.56H121v.56c-1.46.12-1.62.21-1.62,1.78v2.91h6.49v-2.91c0-1.56-.15-1.66-1.65-1.78v-.56h5.12Z"/><path d="M134.51,152a4.09,4.09,0,0,1,4.18,4.1,4.2,4.2,0,0,1-4.19,4.41,4.09,4.09,0,0,1-4.26-4.07A4.34,4.34,0,0,1,134.5,152Zm-.24.62c-1.09,0-2.1,1.1-2.1,3.19,0,2.34,1,4,2.53,4,1.09,0,2.06-.73,2.06-3.33,0-2.21-.88-3.91-2.46-3.91Z"/><path d="M144.93,154.5c-.37-1.09-1-1.86-2-1.86a1.15,1.15,0,0,0-1.17,1.23c0,.76.71,1.2,1.56,1.53,1.43.57,2.4,1.24,2.4,2.54,0,1.74-1.59,2.6-3.15,2.6a3.9,3.9,0,0,1-2.17-.61,9.68,9.68,0,0,1-.33-2.28l.52-.07c.35,1.24,1.2,2.34,2.31,2.34a1.27,1.27,0,0,0,1.29-1.26c0-.76-.49-1.17-1.45-1.6s-2.39-1.13-2.39-2.6a2.62,2.62,0,0,1,2.91-2.43,4.06,4.06,0,0,1,1.69.33,10.38,10.38,0,0,1,.43,2Z"/><path d="M151.24,152.34a2,2,0,0,1,1-.31,3.34,3.34,0,0,1,3.38,3.52c0,2.75-2.26,4.53-4.69,5a3.51,3.51,0,0,1-1.33-.31v2.44c0,1.36.14,1.47,1.59,1.6v.5h-4.6v-.5c1.21-.12,1.38-.24,1.38-1.44v-8.35c0-1.17-.1-1.22-1.23-1.37v-.46a15.49,15.49,0,0,0,2.86-.81v1.47Zm-1.67,6.56a2.73,2.73,0,0,0,1.76.72c1.57,0,2.54-1.4,2.54-3.34s-1.19-3.09-2.5-3.09a3.56,3.56,0,0,0-1.8.75Z"/><path d="M156.63,160.32v-.49c1.17-.12,1.31-.23,1.31-1.52v-3.72c0-1.16-.06-1.25-1.17-1.44v-.45a14.44,14.44,0,0,0,2.81-.7v6.31c0,1.28.12,1.38,1.32,1.52v.49Zm1-10.85a1,1,0,0,1,1-1,1,1,0,0,1,0,2A1,1,0,0,1,157.62,149.47Z"/><path d="M165.41,160.28a1.8,1.8,0,0,1-.8.26c-1.25,0-2-.71-2-2.21V153h-1.27l-.09-.21.52-.56h.84v-1.34l1.38-1.29.26,0v2.58h2.1a.54.54,0,0,1-.13.77h-2v4.67c0,1.49.64,1.75,1.11,1.75a2.64,2.64,0,0,0,1.14-.32l.16.5Z"/><path d="M173.56,160.54a1.54,1.54,0,0,1-1-.37,1.66,1.66,0,0,1-.45-.79,6.22,6.22,0,0,1-2.18,1.16,2.29,2.29,0,0,1-2.32-2.28c0-.93.5-1.48,1.53-1.81a12.16,12.16,0,0,0,2.91-1.2v-.33c0-1.33-.61-2-1.51-2a1.09,1.09,0,0,0-.8.33,3,3,0,0,0-.57,1.25.58.58,0,0,1-.6.46.93.93,0,0,1-.86-.82c0-.28.24-.51.6-.76a8.78,8.78,0,0,1,2.88-1.31,2.51,2.51,0,0,1,1.56.47,2.78,2.78,0,0,1,.9,2.34v3.33c0,.82.33,1.1.67,1.1a1.49,1.49,0,0,0,.67-.2l.19.49Zm-1.48-4.65c-.38.19-1.14.55-1.53.72-.74.32-1.14.69-1.14,1.37a1.32,1.32,0,0,0,1.29,1.4,2.24,2.24,0,0,0,1.38-.6Z"/><path d="M175.67,160.32v-.49c1.18-.14,1.34-.24,1.34-1.48v-8.68c0-1.25-.13-1.29-1.29-1.41v-.45a17.41,17.41,0,0,0,2.91-.65v11.19c0,1.25.16,1.36,1.39,1.48v.49Z"/><path d="M196.71,160.32v-.53c1.53-.15,1.61-.28,1.58-2.23l-.06-7.42h-.08l-4.63,10.07h-.38l-4.26-9.82h0l-.28,5.2a27.24,27.24,0,0,0,0,3c0,.87.48,1,1.73,1.12v.56H185.8v-.56c1.09-.1,1.46-.36,1.61-1.1s.22-1.44.37-3.43l.28-3.71c.16-2.41.05-2.51-1.65-2.67v-.56h3.23l4.29,9.1,4.35-9.1h3.31v.56c-1.65.13-1.77.2-1.71,2l.18,6.68c.07,1.95.12,2.08,1.76,2.23v.53Z"/><path d="M209.44,158.68a4.37,4.37,0,0,1-3.18,1.86,3.7,3.7,0,0,1-3.68-3.93,4.63,4.63,0,0,1,1.2-3.16,4,4,0,0,1,2.84-1.42h0a2.92,2.92,0,0,1,2.88,2.85c0,.35-.1.52-.44.6s-2.69.24-4.87.31c0,2.39,1.44,3.4,2.74,3.4a3.12,3.12,0,0,0,2.18-.92Zm-3.27-6c-.81,0-1.62.72-1.88,2.26,1,0,2,0,3.05,0,.33,0,.44-.12.44-.36a1.72,1.72,0,0,0-1.59-1.87Z"/><path d="M220,159.84a27.14,27.14,0,0,0-3.06.7v-1.19l-1.11.65a3.41,3.41,0,0,1-1.44.54,3.76,3.76,0,0,1-3.58-3.94,4.79,4.79,0,0,1,4.92-4.57,4,4,0,0,1,1.21.21v-2.61c0-1.2-.12-1.25-1.45-1.34v-.48a19.19,19.19,0,0,0,3.08-.65v11c0,1,.14,1.1.9,1.18l.53.05Zm-3.06-6.14a2.33,2.33,0,0,0-1.91-1c-.8,0-2.36.67-2.36,3.36,0,2.21,1.4,3.22,2.56,3.22a3.27,3.27,0,0,0,1.71-.58Z"/><path d="M220.75,160.32v-.49c1.17-.12,1.31-.23,1.31-1.52v-3.72c0-1.16-.06-1.25-1.17-1.44v-.45a14.44,14.44,0,0,0,2.81-.7v6.31c0,1.28.12,1.38,1.32,1.52v.49Zm1-10.85a1,1,0,0,1,1-1,1,1,0,0,1,0,2A1,1,0,0,1,221.73,149.47Z"/><path d="M233.1,158.61a4.58,4.58,0,0,1-3.23,1.93,3.77,3.77,0,0,1-3.87-3.86,4.37,4.37,0,0,1,1.91-3.6,5.23,5.23,0,0,1,2.9-1.05h0a2.7,2.7,0,0,1,1.7.5.65.65,0,0,1,.3.57.91.91,0,0,1-.66.84c-.11,0-.2-.05-.36-.21a2.88,2.88,0,0,0-1.93-.8c-1.16,0-2.22.94-2.22,2.9a2.95,2.95,0,0,0,5.12,2.37Z"/><path d="M240,160.54a1.51,1.51,0,0,1-1-.37,1.68,1.68,0,0,1-.46-.79,6.11,6.11,0,0,1-2.17,1.16,2.29,2.29,0,0,1-2.33-2.28c0-.93.51-1.48,1.53-1.81a12,12,0,0,0,2.91-1.2v-.33c0-1.33-.61-2-1.5-2a1.09,1.09,0,0,0-.8.33,2.86,2.86,0,0,0-.57,1.25.59.59,0,0,1-.61.46.94.94,0,0,1-.86-.82c0-.28.24-.51.61-.76A8.63,8.63,0,0,1,237.7,152a2.52,2.52,0,0,1,1.57.47,2.78,2.78,0,0,1,.9,2.34v3.33c0,.82.33,1.1.67,1.1a1.52,1.52,0,0,0,.67-.2l.19.49Zm-1.48-4.65c-.38.19-1.14.55-1.53.72-.73.32-1.14.69-1.14,1.37a1.32,1.32,0,0,0,1.29,1.4,2.22,2.22,0,0,0,1.38-.6Z"/><path d="M242.15,160.32v-.49c1.18-.14,1.35-.24,1.35-1.48v-8.68c0-1.25-.13-1.29-1.29-1.41v-.45a17.65,17.65,0,0,0,2.91-.65v11.19c0,1.25.16,1.36,1.39,1.48v.49Z"/><path d="M261.89,157.33c-.13.64-.52,2.42-.71,3h-8.73v-.53c1.62-.11,1.79-.24,1.79-1.86v-7.26c0-1.61-.13-1.72-1.7-1.82v-.56h5.13v.56c-1.5.1-1.67.2-1.67,1.82v7.2c0,1,.08,1.36.44,1.55a4.17,4.17,0,0,0,1.76.24,2.64,2.64,0,0,0,2.1-.59,5,5,0,0,0,1-1.85Z"/><path d="M269,160.54a1.51,1.51,0,0,1-1-.37,1.68,1.68,0,0,1-.46-.79,6.19,6.19,0,0,1-2.17,1.16,2.29,2.29,0,0,1-2.33-2.28c0-.93.5-1.48,1.53-1.81a12.16,12.16,0,0,0,2.91-1.2v-.33c0-1.33-.61-2-1.51-2a1.08,1.08,0,0,0-.79.33,2.86,2.86,0,0,0-.57,1.25.6.6,0,0,1-.61.46.93.93,0,0,1-.86-.82c0-.28.24-.51.61-.76A8.63,8.63,0,0,1,266.7,152a2.54,2.54,0,0,1,1.57.47,2.8,2.8,0,0,1,.9,2.34v3.33c0,.82.33,1.1.67,1.1a1.52,1.52,0,0,0,.67-.2l.19.49Zm-1.48-4.65c-.38.19-1.14.55-1.53.72-.74.32-1.14.69-1.14,1.37a1.32,1.32,0,0,0,1.29,1.4,2.24,2.24,0,0,0,1.38-.6Z"/><path d="M275,152.25a2.35,2.35,0,0,1,.85-.22,3.83,3.83,0,0,1,3.78,3.89,4.67,4.67,0,0,1-4.79,4.62,7.15,7.15,0,0,1-2.87-.66V149.66c0-1.17-.07-1.3-1.24-1.41v-.44a17.49,17.49,0,0,0,2.87-.65v5.68Zm-1.4,5.89a1.6,1.6,0,0,0,.11.64,1.73,1.73,0,0,0,1.62,1c1.5,0,2.48-1.23,2.48-3.39s-1.33-3.31-2.82-3.31a3.6,3.6,0,0,0-1.39.31Z"/><path d="M285.47,152a4.09,4.09,0,0,1,4.18,4.1,4.2,4.2,0,0,1-4.19,4.41,4.09,4.09,0,0,1-4.26-4.07,4.34,4.34,0,0,1,4.26-4.44Zm-.24.62c-1.08,0-2.1,1.1-2.1,3.19,0,2.34,1,4,2.53,4,1.09,0,2.07-.73,2.07-3.33,0-2.21-.89-3.91-2.47-3.91Z"/><path d="M293.67,154c.62-1,1.39-2,2.27-2a1.08,1.08,0,0,1,1.14.95,1.11,1.11,0,0,1-.66,1,.47.47,0,0,1-.51,0,1.14,1.14,0,0,0-.82-.38c-.48,0-1,.55-1.46,1.53v3.3c0,1.22.09,1.33,1.56,1.45v.49H290.7v-.49c1.14-.12,1.3-.23,1.3-1.45v-3.83c0-1.18-.1-1.25-1.15-1.4v-.42a12.28,12.28,0,0,0,2.78-.76V154Z"/><path d="M303.88,160.54a1.51,1.51,0,0,1-1-.37,1.59,1.59,0,0,1-.45-.79,6.22,6.22,0,0,1-2.18,1.16,2.3,2.3,0,0,1-2.33-2.28c0-.93.51-1.48,1.53-1.81a12,12,0,0,0,2.91-1.2v-.33c0-1.33-.6-2-1.5-2a1.09,1.09,0,0,0-.8.33,3,3,0,0,0-.57,1.25.59.59,0,0,1-.61.46.94.94,0,0,1-.86-.82c0-.28.24-.51.61-.76a8.63,8.63,0,0,1,2.87-1.31,2.52,2.52,0,0,1,1.57.47,2.78,2.78,0,0,1,.9,2.34v3.33c0,.82.33,1.1.67,1.1a1.49,1.49,0,0,0,.67-.2l.19.49Zm-1.48-4.65c-.38.19-1.14.55-1.53.72-.73.32-1.14.69-1.14,1.37a1.32,1.32,0,0,0,1.29,1.4,2.22,2.22,0,0,0,1.38-.6Z"/><path d="M309.72,160.28a1.87,1.87,0,0,1-.8.26c-1.25,0-1.95-.71-1.95-2.21V153h-1.28l-.09-.21.52-.56H307v-1.34l1.38-1.29.25,0v2.58h2.1a.54.54,0,0,1-.12.77h-2v4.67c0,1.49.65,1.75,1.12,1.75a2.56,2.56,0,0,0,1.13-.32l.17.5Z"/><path d="M316,152a4.09,4.09,0,0,1,4.18,4.1,4.2,4.2,0,0,1-4.19,4.41,4.09,4.09,0,0,1-4.26-4.07,4.34,4.34,0,0,1,4.26-4.44Zm-.24.62c-1.09,0-2.1,1.1-2.1,3.19,0,2.34,1,4,2.53,4,1.09,0,2.06-.73,2.06-3.33,0-2.21-.88-3.91-2.46-3.91Z"/><path d="M324.15,154c.62-1,1.39-2,2.27-2a1.07,1.07,0,0,1,1.13.95,1.1,1.1,0,0,1-.65,1,.47.47,0,0,1-.51,0,1.15,1.15,0,0,0-.82-.38c-.48,0-1.05.55-1.46,1.53v3.3c0,1.22.09,1.33,1.56,1.45v.49h-4.49v-.49c1.14-.12,1.3-.23,1.3-1.45v-3.83c0-1.18-.1-1.25-1.15-1.4v-.42a12.28,12.28,0,0,0,2.78-.76V154Z"/><path d="M328.38,160.32v-.49c1.17-.12,1.31-.23,1.31-1.52v-3.72c0-1.16-.06-1.25-1.17-1.44v-.45a14.16,14.16,0,0,0,2.8-.7v6.31c0,1.28.13,1.38,1.33,1.52v.49Zm1-10.85a1,1,0,0,1,1-1,1,1,0,0,1,0,2A1,1,0,0,1,329.36,149.47Z"/><path d="M340.48,158.68a4.34,4.34,0,0,1-3.17,1.86,3.69,3.69,0,0,1-3.68-3.93,4.63,4.63,0,0,1,1.2-3.16,4,4,0,0,1,2.83-1.42h0a2.93,2.93,0,0,1,2.88,2.85c0,.35-.1.52-.44.6s-2.7.24-4.87.31c0,2.39,1.44,3.4,2.74,3.4a3.14,3.14,0,0,0,2.18-.92Zm-3.26-6c-.81,0-1.62.72-1.88,2.26,1,0,2,0,3,0,.33,0,.45-.12.45-.36a1.72,1.72,0,0,0-1.6-1.87Z"/><path d="M346.55,154.5c-.37-1.09-1-1.86-1.95-1.86a1.15,1.15,0,0,0-1.17,1.23c0,.76.71,1.2,1.56,1.53,1.43.57,2.4,1.24,2.4,2.54,0,1.74-1.59,2.6-3.15,2.6a3.9,3.9,0,0,1-2.17-.61,9.68,9.68,0,0,1-.33-2.28l.52-.07c.35,1.24,1.2,2.34,2.31,2.34a1.27,1.27,0,0,0,1.29-1.26c0-.76-.49-1.17-1.45-1.6s-2.39-1.13-2.39-2.6a2.62,2.62,0,0,1,2.91-2.43,4.06,4.06,0,0,1,1.69.33,10.38,10.38,0,0,1,.43,2Z"/></g><path id="مختبرات_مستشفى_سانت_جيمس" data-name="مختبرات مستشفى سانت جيمس" class="cls-3" d="M28.75,113.58c-.63-.61-1.19-1.11-1.81-1.62a14,14,0,0,1,1.22-1.48,14.49,14.49,0,0,1,1.78,1.67A8.58,8.58,0,0,1,28.75,113.58ZM32.94,112a14.49,14.49,0,0,0-1.78-1.67,15.31,15.31,0,0,0-1.22,1.48c.62.51,1.18,1,1.81,1.62A8.58,8.58,0,0,0,32.94,112Zm6,17.7a14,14,0,0,0-1.22,1.48c.62.51,1.18,1,1.81,1.62a8.58,8.58,0,0,0,1.19-1.43A14.49,14.49,0,0,0,39,129.65Zm-3,.2a14,14,0,0,0-1.22,1.48c.62.51,1.18,1,1.81,1.62a8.58,8.58,0,0,0,1.19-1.43A15.3,15.3,0,0,0,36,129.85Zm8.71-.17c-.42.49-.84,1-1.26,1.59.62.53,1.23,1,1.83,1.6a6.17,6.17,0,0,0,1.29-1.52A13.61,13.61,0,0,0,44.69,129.68ZM68.1,114.39a9.59,9.59,0,0,1-1,.79c.06,1.79.2,3.67.2,5.39a9.29,9.29,0,0,1-.62,3.91,3.15,3.15,0,0,1-1.41,1.8,4.5,4.5,0,0,1-2,.47h-.6a25.33,25.33,0,0,1-5-.5,47.72,47.72,0,0,1-8.1.5H48.14c-1.52,0-2.67-.42-3.2-1.59h-.06a3.36,3.36,0,0,1-3.1,1.59h-.65c-1.52,0-2.67-.42-3.2-1.59h-.07a3.33,3.33,0,0,1-3.09,1.59h-.64a2.9,2.9,0,0,1-3.21-2.17,7.43,7.43,0,0,1-3.08.69c-1.64,0-2.83-.58-2.83-1.82a4.55,4.55,0,0,1,.5-1.82c.62-1.35,2.3-2.8,5-4.27l-.09-1.17a16.61,16.61,0,0,1,1.22-1.28h.18c.06,2.41.07,4.84.09,7.25,0,1.06.12,1.79.59,2.19a2.53,2.53,0,0,0,1.63.41h.72c1.19,0,2.44-.49,2.67-1.37l.45-1.68,1.07-.78.1.11a8.13,8.13,0,0,0-.34,1.8,1.54,1.54,0,0,0,.51,1.29,2.87,2.87,0,0,0,1.93.63h.62c1.2,0,2.44-.49,2.67-1.37l.45-1.68,1.08-.78.09.11a8.13,8.13,0,0,0-.34,1.8,1.54,1.54,0,0,0,.51,1.29,2.87,2.87,0,0,0,1.93.63h1.37l1.18-1.42a11.93,11.93,0,0,0,.23-3.09c0-2-.22-5.37-.39-7.14,0-.48-.09-1-.09-1.52,0-.7.43-1.2,1.21-1.79l.11.11a7,7,0,0,0,1.32,3.42l-1,.78c.08,1.68.14,3.35.14,5a7.72,7.72,0,0,1-.54,3.11h.06a16.16,16.16,0,0,1,3.29-2.84,5.75,5.75,0,0,1,2.9-.86,3.8,3.8,0,0,1,3.71,3.83,4.7,4.7,0,0,1-.81,2.3,12.15,12.15,0,0,0,1.6.08h1a3.55,3.55,0,0,0,1.74-.42,1.77,1.77,0,0,0,.83-1.68c0-2.49-.2-5.21-.45-8.07-.06-.72-.16-1.37-.16-1.94a1.6,1.6,0,0,1,.47-1.05,7.55,7.55,0,0,1,.85-.85l.11.08A7,7,0,0,0,68.1,114.39Zm-37.43,8.53-.08-3.84c-2.77,1.43-4.21,2.58-4.21,3.41,0,.6.93.87,2,.87A7.41,7.41,0,0,0,30.67,122.92Zm29.74.39c0-1.31-1.47-2.64-3.24-2.64-2,0-3.79,1.44-6.25,4.09h1.45C56.44,124.76,59.72,124.46,60.41,123.31Zm11.52-12.25a13.51,13.51,0,0,0-1.53,1.65c.25,2.69.56,6.82.56,9.67v1.52a19.93,19.93,0,0,1-.17,3.11l.2.11a4.07,4.07,0,0,0,1.37-2.5,24.11,24.11,0,0,0,.11-2.57c0-3.62-.08-7.55-.4-10.94Zm44.69,18.79a15.31,15.31,0,0,0-1.23,1.48c.62.51,1.18,1,1.82,1.62a8.1,8.1,0,0,0,1.18-1.43A14.47,14.47,0,0,0,116.62,129.85Zm3-.2a15.31,15.31,0,0,0-1.23,1.48c.62.51,1.18,1,1.82,1.62a8.1,8.1,0,0,0,1.18-1.43A13.74,13.74,0,0,0,119.62,129.65Zm16.11-8.92,0,0-.82,1.63a4.77,4.77,0,0,0-2.69.58l-2.6,1.69a12.14,12.14,0,0,1-6.73,2.09h-1.16c-1.53,0-2.68-.42-3.21-1.59h-.06a3.35,3.35,0,0,1-3.09,1.59h-.59a2.66,2.66,0,0,1-2.4-1.36h-.06a2.38,2.38,0,0,1-.5,1.18,1.39,1.39,0,0,1-1,.52,6.91,6.91,0,0,1-4.4-2.18h-.06a3.15,3.15,0,0,1-3.1,1.84h-.62c-1.93,0-3-.6-3.36-1.47h-.09a3.6,3.6,0,0,1-2.72,1.47,1.53,1.53,0,0,1-1.67-1.29h-.09a2.8,2.8,0,0,1-2.47,1.29H92a11.92,11.92,0,0,1-.59,2.48,5.85,5.85,0,0,1-5.23,3c-3,0-4.52-2-4.52-4.77a8.14,8.14,0,0,1,1.23-4.35l.54.28a7.24,7.24,0,0,0-.74,2.91,3.53,3.53,0,0,0,3.79,3.76c2.41,0,4.62-1.85,4.62-3.3a8.9,8.9,0,0,0-1.6-4.12c.29-.54.59-1,1-1.66h.06a21.59,21.59,0,0,1,1.28,3c.22.53.43.78,1,.78a2.07,2.07,0,0,0,1.19-.44,2.55,2.55,0,0,0,.9-1.23l.4-1.15,1.06-.48.06.08a8,8,0,0,0-.47,2.27c0,.65.47,1,1.08,1,1.19,0,1.68-1.12,1.91-2.07l.26-1.09,1.14-.67.06.08a9.45,9.45,0,0,0-.37,2.13c0,1.23,1.21,1.62,2.69,1.62h.79c1.63,0,2.16-.81,2.63-2.29.6-1.94,1.83-3,2.87-3a2.11,2.11,0,0,1,1.87,1,19.68,19.68,0,0,1,1.55,2.92,2.52,2.52,0,0,0,2.43,1.28h.6c1.2,0,2.45-.49,2.68-1.37l.45-1.68,1.07-.78.1.11a8.31,8.31,0,0,0-.35,1.8,1.51,1.51,0,0,0,.52,1.29,2.84,2.84,0,0,0,1.92.63h1.23c2.52,0,5.1-.89,8.3-2.82l0-.06a14.56,14.56,0,0,0-4.88-1.09,2.5,2.5,0,0,0-2,.78l.19.78-.47,1.39h-.15l-.76-2a3.08,3.08,0,0,1,3.37-2.8,15.08,15.08,0,0,1,5.1,1.36,7.73,7.73,0,0,0,2.66.49Zm-24.27,4.06a4.35,4.35,0,0,0-.78-2.07,2.59,2.59,0,0,0-2-1.4,1.93,1.93,0,0,0-1.79,1.4,4.44,4.44,0,0,0,1.84,1.77,5,5,0,0,0,2.14.69C111.18,125.18,111.46,125.14,111.46,124.79Zm16.35,4.27c-.42.48-.84,1-1.26,1.59.63.53,1.23,1,1.84,1.6a6.36,6.36,0,0,0,1.29-1.52A14.29,14.29,0,0,0,127.81,129.06Zm28.44-13.69a15.18,15.18,0,0,0-1.77-1.67,14,14,0,0,0-1.23,1.48c.62.51,1.18,1,1.82,1.62A9.08,9.08,0,0,0,156.25,115.37Zm-3,.2a14.49,14.49,0,0,0-1.78-1.67,15.31,15.31,0,0,0-1.22,1.48c.62.51,1.18,1,1.82,1.62A9.08,9.08,0,0,0,153.25,115.57Zm15.08-.72a15,15,0,0,0-1.87-1.66c-.42.48-.84,1-1.26,1.58.62.53,1.23,1,1.84,1.61A6.68,6.68,0,0,0,168.33,114.85Zm-.47,3.33a13.43,13.43,0,0,0-1.17,1.76,12.87,12.87,0,0,1,1.56,3.84c0,.26-.34.48-.89.68a10,10,0,0,1-3.06.3h-.54a2.65,2.65,0,0,1-1.87-.6,1.45,1.45,0,0,1-.54-1.25,7.37,7.37,0,0,1,.37-1.85l-.09-.11-1.06.76-.68,2.17a12.52,12.52,0,0,1-2.07.67,22.86,22.86,0,0,1-5.3.7,9.8,9.8,0,0,1-5-1,4,4,0,0,1-2-3.44,7.83,7.83,0,0,1,.45-2.36l-.62-.26a7.76,7.76,0,0,0-.92,3.76,4.82,4.82,0,0,0,2.29,4.21,9.93,9.93,0,0,0,5.33,1.2,23,23,0,0,0,6-1,10.73,10.73,0,0,0,2.43-1c.59,1.06,1.64,1.36,3.17,1.36h.54c2.38,0,3.48-.24,4.18-.94a4.59,4.59,0,0,0,1.09-2.89,11,11,0,0,0-1.55-4.74ZM188.77,120a12.34,12.34,0,0,0-1.4,1.4,14.45,14.45,0,0,1,.39,2.52.73.73,0,0,1-.82.7,1.67,1.67,0,0,1-1.62-1.79,7.14,7.14,0,0,1,.2-1.52l-.09-.06-.94.54c-.48,1.62-.56,2.07-1.1,2.47a2.45,2.45,0,0,1-1.38.46.75.75,0,0,1-.81-.78,5.68,5.68,0,0,1,1.06-2.24l-.07-.08-1.19.42-.86,1.23a3.7,3.7,0,0,1-3.28,1.45h-.74a3.2,3.2,0,0,1-1-.18,1.61,1.61,0,0,1-1.17-1.66V122c0-3.82,0-7.85-.24-11.25l-.11-.06a13,13,0,0,0-1.46,1.44c.23,3.3.4,6.39.4,9.35,0,2.28,0,3.39,1,4.35a3.42,3.42,0,0,0,2.66.89h.44a4.16,4.16,0,0,0,3.31-1.33H180a1.34,1.34,0,0,0,1.49,1.33,3.64,3.64,0,0,0,2.72-1.34h.13a2.62,2.62,0,0,0,1.94,1.29,3,3,0,0,0,2.3-1.71,5.29,5.29,0,0,0,.56-2.13,17.75,17.75,0,0,0-.25-2.77Zm30.59-6.73a14.21,14.21,0,0,0-1.86-1.66c-.42.48-.84,1-1.26,1.59.62.52,1.23,1,1.83,1.6A6.22,6.22,0,0,0,219.36,113.31Zm14,5.66a7.75,7.75,0,0,0,1.18-1.43,14.37,14.37,0,0,0-1.77-1.66,14.18,14.18,0,0,0-1.23,1.48C232.14,117.87,232.7,118.37,233.34,119Zm-1-4.54a15.12,15.12,0,0,0-1.77-1.66,13,13,0,0,0-1.23,1.48c.62.51,1.18,1,1.82,1.61A8.17,8.17,0,0,0,232.36,114.43Zm-.84,3.31a15.12,15.12,0,0,0-1.77-1.66,14.18,14.18,0,0,0-1.23,1.48c.62.51,1.18,1,1.82,1.61A7.43,7.43,0,0,0,231.52,117.74Zm10.32-.31a14.37,14.37,0,0,0-1.77-1.66,14.18,14.18,0,0,0-1.23,1.48c.63.51,1.18,1,1.82,1.61A7.43,7.43,0,0,0,241.84,117.43Zm3-.2a14.37,14.37,0,0,0-1.77-1.66,14,14,0,0,0-1.23,1.47c.63.52,1.19,1,1.82,1.62A7.75,7.75,0,0,0,244.84,117.23Zm26,7.32c-.33,1.42-.9,2-1.65,2a8,8,0,0,1-4.62-1.84h-.11a2.55,2.55,0,0,1-2.69,2h-.65c-1.93,0-2.81-.6-3.2-1.47h-.09a3.49,3.49,0,0,1-2.66,1.47,1.56,1.56,0,0,1-1.7-1.29h-.06a3.54,3.54,0,0,1-2.69,1.29,1.34,1.34,0,0,1-1.49-1.33h-.06a4.16,4.16,0,0,1-3.31,1.33h-.63c-1.52,0-2.67-.42-3.2-1.59H242a3.35,3.35,0,0,1-3.09,1.59h-.69c-1.93,0-2.81-.6-3.2-1.47h-.09a3.49,3.49,0,0,1-2.66,1.47,1.56,1.56,0,0,1-1.7-1.29h-.06a3.54,3.54,0,0,1-2.69,1.29,1.34,1.34,0,0,1-1.49-1.33h-.06a4.16,4.16,0,0,1-3.31,1.33h-.72a14.77,14.77,0,0,1-5.08-1,14.07,14.07,0,0,1-4.45,1h-1.18a9.42,9.42,0,0,1,.06,1.11,5.71,5.71,0,0,1-.7,2,11.73,11.73,0,0,1-7.24,2.89,5.5,5.5,0,0,1-4.28-1.68,6.33,6.33,0,0,1-1.35-4.34,11.23,11.23,0,0,1,1.46-5.13l.59.27a10.59,10.59,0,0,0-.95,3.9,4.87,4.87,0,0,0,1.25,3.39,5.14,5.14,0,0,0,3.76,1.46,11.45,11.45,0,0,0,5-1.34,3.55,3.55,0,0,0,1.4-1.07c-.36-.75-2.05-1.41-4.53-1.41l-.09-.22,1.07-1.77h5.75a11.71,11.71,0,0,0,2.51-.38,4.25,4.25,0,0,1-.55-2.36,5.23,5.23,0,0,1,1.4-3.65,4.16,4.16,0,0,1,2.35-1.45c.56,0,1.24.62,1.82,1.73a4.74,4.74,0,0,1,.59,2.2,7,7,0,0,1-1,3.63,8.86,8.86,0,0,0,2.42.28h1a3.78,3.78,0,0,0,3.28-1.45l.78-1.21,1.19-.42.07.08a6.14,6.14,0,0,0-1,2.22.77.77,0,0,0,.84.78,2.28,2.28,0,0,0,1.35-.47,3.39,3.39,0,0,0,1-1.37l.37-.92,1.18-.54.07.06a6.41,6.41,0,0,0-.64,2.33.86.86,0,0,0,.87.91,1.78,1.78,0,0,0,1.07-.35,2.4,2.4,0,0,0,.9-1.49c.06-.25.16-.54.31-1.23l1.19-.79.06,0a8.76,8.76,0,0,0-.39,2.13c0,1.22,1.07,1.68,2.55,1.68H239c1.2,0,2.44-.49,2.68-1.37l.45-1.68,1.07-.78.09.11a8.78,8.78,0,0,0-.34,1.8,1.54,1.54,0,0,0,.51,1.29,2.89,2.89,0,0,0,1.93.63h.81a3.78,3.78,0,0,0,3.28-1.45l.78-1.21,1.19-.42.07.08a6.14,6.14,0,0,0-1,2.22.77.77,0,0,0,.84.78,2.28,2.28,0,0,0,1.35-.47,3.39,3.39,0,0,0,1-1.37L254,122l1.18-.54.07.06a6.41,6.41,0,0,0-.64,2.33.86.86,0,0,0,.87.91,1.78,1.78,0,0,0,1.07-.35,2.4,2.4,0,0,0,.9-1.49c.07-.25.16-.54.31-1.23l1.19-.79.06,0a8.76,8.76,0,0,0-.39,2.13c0,1.22,1.07,1.68,2.55,1.68h.68c1.15,0,2.05-.8,2.61-2.76a4.91,4.91,0,0,1,1.15-1.88,2.93,2.93,0,0,1,2-.9C269.5,119.22,270.62,121.83,270.87,124.55ZM220,122a3.21,3.21,0,0,0-.37-1.4c-.42-.82-.9-1.4-1.54-1.4-1.21,0-2.39,1.45-2.67,2.6a2.76,2.76,0,0,0,2.13,2.06C218.57,123.67,220,122.66,220,122Zm49.72,2.39c-.45-2.34-1.48-3.39-2.46-3.39a2.24,2.24,0,0,0-2.08,1.53,4.75,4.75,0,0,0,2.19,1.58,4.88,4.88,0,0,0,1.85.45C269.41,124.58,269.61,124.55,269.67,124.41ZM288,115.57a13.74,13.74,0,0,0-1.77-1.67,15.31,15.31,0,0,0-1.23,1.48c.63.51,1.19,1,1.82,1.62A8.1,8.1,0,0,0,288,115.57Zm3-.2a13.74,13.74,0,0,0-1.77-1.67,15.31,15.31,0,0,0-1.23,1.48c.63.51,1.19,1,1.82,1.62A8.1,8.1,0,0,0,291,115.37Zm4,2.81a12.49,12.49,0,0,0-1.16,1.76,13.05,13.05,0,0,1,1.55,3.84s0,.12-.16.17a11.67,11.67,0,0,1-2.05.63,22.92,22.92,0,0,1-5.31.67c-3.91,0-7-1.29-7-4.43a7.83,7.83,0,0,1,.45-2.36l-.62-.26a7.76,7.76,0,0,0-.92,3.76c0,3.82,3.31,5.41,7.62,5.41a20.94,20.94,0,0,0,8.41-1.85,4.64,4.64,0,0,0,.82-2.6,11,11,0,0,0-1.55-4.74Zm6.3,3.87c0-3.62-.08-7.55-.41-10.94l-.14,0a14.29,14.29,0,0,0-1.52,1.65c.25,2.69.56,6.82.56,9.67v1.52a21.23,21.23,0,0,1-.17,3.11l.2.11a4.07,4.07,0,0,0,1.37-2.5A24.11,24.11,0,0,0,301.31,122.05Zm10,7.79c-.42.48-.84,1-1.26,1.58.62.53,1.23,1,1.84,1.61a6.68,6.68,0,0,0,1.29-1.53A15,15,0,0,0,311.35,129.84Zm7-12.41a15.19,15.19,0,0,0-1.78-1.66,14.18,14.18,0,0,0-1.22,1.48c.62.51,1.18,1,1.82,1.61A8.24,8.24,0,0,0,318.38,117.43Zm3-.2a16,16,0,0,0-1.77-1.66,12.87,12.87,0,0,0-1.23,1.47c.62.52,1.18,1,1.82,1.62A8.64,8.64,0,0,0,321.38,117.23Zm14.5,3.55,0,0H334.5a7.28,7.28,0,0,1-2.66-.51,15.07,15.07,0,0,0-5.1-1.34,3.08,3.08,0,0,0-3.37,2.8l.76,2h.15l.47-1.39-.19-.78a2.5,2.5,0,0,1,2-.78,14.56,14.56,0,0,1,4.88,1.09l0,.06c-3.2,1.93-5.78,2.82-8.3,2.82h-1.23a2.84,2.84,0,0,1-1.92-.63,1.51,1.51,0,0,1-.52-1.29,8.31,8.31,0,0,1,.35-1.8l-.1-.11-1.07.78-.45,1.68c-.23.88-1.48,1.37-2.67,1.37h-.55a2.66,2.66,0,0,1-1.26-.35,4,4,0,0,1-1.32-2.69l-.42-2.42h-.15a9.37,9.37,0,0,1-1.31,2.1,1.89,1.89,0,0,1-1.1.42,2.29,2.29,0,0,1-1.31-.34c-.33-.25-.73-.61-1.13-1h-.14l-.52,2a8.25,8.25,0,0,1,2,2.64,4.31,4.31,0,0,1-1.26,2.19,5.57,5.57,0,0,1-4.26,2.21,3.54,3.54,0,0,1-1.46-.39l-.22.5a9,9,0,0,0,4.06,1.23c.8,0,2-.83,3.06-2.37a5.45,5.45,0,0,0,.88-2.08c0-.44,0-.62,0-.81a9.07,9.07,0,0,0-.21-2.14,2.57,2.57,0,0,0,2.3-1.67h.08l.38,1.59c.63,2.52,1.4,3.36,3.25,3.36h.58a3.34,3.34,0,0,0,3.09-1.59h.06c.53,1.17,1.68,1.59,3.21,1.59h1.07a12.09,12.09,0,0,0,6.82-2.09l2.6-1.69a4.94,4.94,0,0,1,2.63-.59Zm-6.48-5.6a13.5,13.5,0,0,0-1.87-1.66c-.42.48-.84,1-1.26,1.58.63.53,1.23,1,1.84,1.6A6.17,6.17,0,0,0,329.4,115.18Zm16.31,9.37c-.33,1.42-.9,2-1.65,2a8,8,0,0,1-4.62-1.84h-.11a2.55,2.55,0,0,1-2.69,2h-.74c-2,0-3.35-.7-3.35-2.57a8.46,8.46,0,0,1,.05-.87l.56-.37h0c.06,1.32,1.15,1.81,2.75,1.81h.76c1.15,0,2-.8,2.61-2.76a4.79,4.79,0,0,1,1.15-1.88,2.93,2.93,0,0,1,2-.9C344.34,119.22,345.46,121.83,345.71,124.55Zm-1.2-.14c-.45-2.34-1.48-3.39-2.46-3.39a2.24,2.24,0,0,0-2.08,1.53,4.75,4.75,0,0,0,2.19,1.58,4.88,4.88,0,0,0,1.85.45C344.25,124.58,344.45,124.55,344.51,124.41Z"/></g></svg>