<?xml version="1.0" encoding="utf-8"?>
<!-- Generator: Adobe Illustrator 25.0.0, SVG Export Plug-In . SVG Version: 6.00 Build 0)  -->
<svg version="1.1" id="Layer_2" xmlns="http://www.w3.org/2000/svg" xmlns:xlink="http://www.w3.org/1999/xlink" x="0px" y="0px"
	 viewBox="0 0 32 32" style="enable-background:new 0 0 32 32;" xml:space="preserve">
<style type="text/css">
	.st0{fill:#FFFFFF;}
	.st1{fill:none;stroke:#CF1620;stroke-width:2;stroke-miterlimit:10;}
	.st2{fill:#CF1620;}
</style>
<path class="st0" d="M27,32H5c-2.8,0-5-2.2-5-5V5c0-2.8,2.2-5,5-5h22c2.8,0,5,2.2,5,5v22C32,29.8,29.8,32,27,32z"/>
<path class="st1" d="M22.3,26.2H9.7c-2.8,0-5-2.2-5-5V10.8c0-2.8,2.2-5,5-5h12.7c2.8,0,5,2.2,5,5v10.3
	C27.3,23.9,25.1,26.2,22.3,26.2z"/>
<rect x="2.3" y="9.8" class="st0" width="27.4" height="12.5"/>
<g>
	<path class="st2" d="M8.2,12.1c0,0,0.3,1.6-1.3,1.9c-1.2,0-2.7,0-2.7,0v0.5c0,0,1.8,0,2.7,0c0.6,0,0.9-0.3,1.1-0.7h4.7
		c0.4,0.3,0.5,0.7,0,1H7.6v0.6h6.3c0.4,0.4,0.4,0.7,0,1.1H7.6v0.6h5.6c0.5,0.4,0.4,0.7,0,1H7.6v0.6h4.5c0.5,0.4,0.5,0.7,0,1.1H0
		v-7.8H8.2z"/>
	<path class="st2" d="M23.8,12.1c0,0-0.3,1.6,1.3,1.9c1.2,0,2.7,0,2.7,0v0.5c0,0-1.8,0-2.7,0c-0.6,0-0.9-0.3-1.1-0.7h-4.7
		c-0.4,0.3-0.5,0.7,0,1h5.1v0.6h-6.3c-0.4,0.4-0.4,0.7,0,1.1h6.3v0.6h-5.6c-0.5,0.4-0.4,0.7,0,1h5.6v0.6h-4.5
		c-0.5,0.4-0.5,0.7,0,1.1H32v-7.8H23.8z"/>
</g>
</svg>
